<svg version="1.1" xmlns="http://www.w3.org/2000/svg" xmlns:xlink="http://www.w3.org/1999/xlink" width="989" height="901" viewBox="0,0,989,901"><defs><linearGradient x1="15.72581" y1="19.099" x2="15.72581" y2="77.73847" gradientUnits="userSpaceOnUse" id="color-1"><stop offset="0" stop-color="#ffffff"/><stop offset="1" stop-color="#cccccc"/></linearGradient><radialGradient cx="72.32703" cy="48.35928" r="55.30324" gradientUnits="userSpaceOnUse" id="color-2"><stop offset="0" stop-color="#ffffff"/><stop offset="1" stop-color="#cccccc"/></radialGradient><linearGradient x1="116.72581" y1="0.099" x2="116.72581" y2="51.96928" gradientUnits="userSpaceOnUse" id="color-3"><stop offset="0" stop-color="#ffffff"/><stop offset="1" stop-color="#cccccc"/></linearGradient><radialGradient cx="166.79314" cy="25.98155" r="48.91918" gradientUnits="userSpaceOnUse" id="color-4"><stop offset="0" stop-color="#ffffff"/><stop offset="1" stop-color="#cccccc"/></radialGradient><linearGradient x1="184.7258" y1="39.099" x2="184.7258" y2="90.96929" gradientUnits="userSpaceOnUse" id="color-5"><stop offset="0" stop-color="#ffffff"/><stop offset="1" stop-color="#cccccc"/></linearGradient><radialGradient cx="234.79314" cy="64.98155" r="48.91918" gradientUnits="userSpaceOnUse" id="color-6"><stop offset="0" stop-color="#ffffff"/><stop offset="1" stop-color="#cccccc"/></radialGradient><linearGradient x1="264.72581" y1="13.099" x2="264.72581" y2="64.96929" gradientUnits="userSpaceOnUse" id="color-7"><stop offset="0" stop-color="#ffffff"/><stop offset="1" stop-color="#cccccc"/></linearGradient><radialGradient cx="314.79314" cy="38.98155" r="48.91918" gradientUnits="userSpaceOnUse" id="color-8"><stop offset="0" stop-color="#ffffff"/><stop offset="1" stop-color="#cccccc"/></radialGradient><linearGradient x1="87.72581" y1="78.099" x2="87.72581" y2="129.96929" gradientUnits="userSpaceOnUse" id="color-9"><stop offset="0" stop-color="#ffffff"/><stop offset="1" stop-color="#cccccc"/></linearGradient><radialGradient cx="137.79314" cy="103.98155" r="48.91919" gradientUnits="userSpaceOnUse" id="color-10"><stop offset="0" stop-color="#ffffff"/><stop offset="1" stop-color="#cccccc"/></radialGradient><linearGradient x1="241.72581" y1="74.099" x2="241.72581" y2="125.96929" gradientUnits="userSpaceOnUse" id="color-11"><stop offset="0" stop-color="#ffffff"/><stop offset="1" stop-color="#cccccc"/></linearGradient><radialGradient cx="291.79314" cy="99.98155" r="48.91918" gradientUnits="userSpaceOnUse" id="color-12"><stop offset="0" stop-color="#ffffff"/><stop offset="1" stop-color="#cccccc"/></radialGradient><linearGradient x1="343.72581" y1="17.099" x2="343.72581" y2="68.96929" gradientUnits="userSpaceOnUse" id="color-13"><stop offset="0" stop-color="#ffffff"/><stop offset="1" stop-color="#cccccc"/></linearGradient><radialGradient cx="393.79314" cy="42.98155" r="48.91918" gradientUnits="userSpaceOnUse" id="color-14"><stop offset="0" stop-color="#ffffff"/><stop offset="1" stop-color="#cccccc"/></radialGradient></defs><g transform="translate(270.5,136.5)"><g data-paper-data="{&quot;isPaintingLayer&quot;:true}" fill-rule="nonzero" stroke-linejoin="miter" stroke-miterlimit="10" stroke-dasharray="" stroke-dashoffset="0" style="mix-blend-mode: normal"><path d="M-269.5,763.5v-899h987v899z" fill="#00a2ff" stroke="#000000" stroke-width="2" stroke-linecap="butt"/><g stroke="none" stroke-linecap="round"><path d="M64.01597,20.93805c8.24377,-2.04681 17.67317,-3.00658 25.82732,0.47888c2.86522,1.39174 -0.95721,8.42873 1.0089,11.39793c1.08393,1.63592 3.82326,-2.61766 5.20581,-1.00572c5.53186,5.57063 13.52386,11.70443 13.55937,20.49714c0.0371,9.03599 -6.39394,18.31428 -13.36487,22.1752c-9.76112,5.39534 -21.56338,2.6368 -32.3173,1.86579c-10.04924,-0.72029 -19.81194,-4.23354 -29.74179,-6.22577c-4.92495,-0.76818 -10.49233,0.79402 -14.85072,-2.05925c-2.65297,-1.73652 -4.16866,-6.37715 -3.43019,-10.00916c1.07668,-4.22103 7.75632,-4.0304 8.95888,-8.28502c1.22923,-4.35514 -4.23001,-9.52351 -2.74417,-14.17554c1.12511,-3.1579 5.51736,-2.91179 8.63601,-3.44816c5.34469,-0.91085 11.02829,1.64359 16.22284,0c6.25582,-2.0066 10.68282,-9.63074 17.02991,-11.20634z" fill="url(#color-1)" stroke-width="1.28185"/><path d="M65.51121,25.69331c3.56375,-1.25798 7.49604,-1.38725 10.17678,0.89793c2.26238,1.63785 0.78766,5.92542 1.81597,8.62005c0.79222,2.08053 1.92486,4.71864 3.70753,6.24062c1.66162,1.09547 3.7787,0.8162 5.864,1.0326c3.32393,0.3188 7.14422,-2.07866 10.02547,-0.3143c4.7525,2.78182 11.55471,6.78563 11.16046,12.93014c-0.55081,8.57514 -9.24541,13.25875 -13.58169,20.20329c-0.9246,1.78419 2.54083,0.45076 1.05249,0.58543c-5.9487,0.53609 -10.99402,1.78599 -16.60147,1.52468c-6.90288,-0.50645 -13.52724,-1.49324 -20.73199,-3.81615c-5.18985,-1.73299 -9.13645,-7.30645 -14.48971,-8.62012c-5.41531,-1.32976 -11.63416,2.45944 -16.60831,0.3143c-2.30322,-1.00206 -4.43391,-5.51148 -3.10221,-7.9466c1.84997,-3.31875 8.08167,-0.4831 10.36596,-3.77131c1.45503,-2.18375 -1.59874,-5.21874 -1.36196,-7.9466c-0.31016,-3.20025 -1.3536,-8.08941 1.13499,-9.42823c4.60795,-2.48369 10.33874,1.54084 15.20848,0c5.86476,-1.88113 10.14203,-8.43688 15.96519,-10.50573z" fill="url(#color-2)" stroke-width="1.20171"/></g><g stroke="none" stroke-linecap="round"><path d="M159.44148,1.72576c7.29213,-1.81053 15.63303,-2.65951 22.84589,0.4236c2.53447,1.23108 -0.84672,7.45574 0.89243,10.08219c0.95881,1.44707 3.38192,-2.31548 4.60487,-0.88962c4.89328,4.92757 11.9627,10.3533 11.99411,18.131c0.03282,7.9929 -5.65584,16.20013 -11.82207,19.61536c-8.63432,4.77251 -19.07416,2.33241 -28.58668,1.65041c-8.88918,-0.63715 -17.52491,-3.74483 -26.30848,-5.50708c-4.35643,-0.6795 -9.28112,0.70236 -13.13639,-1.82153c-2.34671,-1.53606 -3.68744,-5.64099 -3.03422,-8.85373c0.95239,-3.73377 6.86095,-3.56514 7.92469,-7.32862c1.08733,-3.8524 -3.74171,-8.42414 -2.42739,-12.53916c0.99523,-2.79336 4.88045,-2.57566 7.63909,-3.05011c4.72771,-0.80571 9.75521,1.45385 14.35012,0c5.53367,-1.77496 9.44962,-8.51899 15.06403,-9.91271z" fill="url(#color-3)" stroke-width="1.28185"/><path d="M160.76412,5.93208c3.15236,-1.11276 6.63072,-1.22711 9.002,0.79428c2.00122,1.44878 0.69674,5.2414 1.60634,7.62497c0.70077,1.84036 1.70266,4.17393 3.27954,5.52022c1.46981,0.96901 3.3425,0.72198 5.18707,0.9134c2.94022,0.28199 6.31951,-1.83871 8.86816,-0.27802c4.20388,2.4607 10.22086,6.00231 9.87213,11.43752c-0.48723,7.58525 -8.17814,11.72819 -12.01385,17.87107c-0.81787,1.57823 2.24752,0.39873 0.931,0.51785c-5.262,0.47421 -9.7249,1.57982 -14.68504,1.34867c-6.10603,-0.44799 -11.96569,-1.32086 -18.33874,-3.37562c-4.59075,-1.53294 -8.08176,-6.46301 -12.81705,-7.62503c-4.79018,-1.17626 -10.29115,2.17553 -14.69109,0.27802c-2.03734,-0.88638 -3.92207,-4.87525 -2.7441,-7.02926c1.63641,-2.93564 7.14875,-0.42733 9.16934,-3.33596c1.28707,-1.93167 -1.41419,-4.6163 -1.20474,-7.02926c-0.27435,-2.83082 -1.19735,-7.15559 1.00397,-8.33986c4.07602,-2.19698 9.14526,1.36297 13.45286,0c5.18774,-1.66397 8.97126,-7.46295 14.12221,-9.29298z" fill="url(#color-4)" stroke-width="1.20171"/></g><g stroke="none" stroke-linecap="round"><path d="M227.44148,40.72575c7.29213,-1.81053 15.63302,-2.65951 22.84589,0.42361c2.53446,1.23108 -0.84672,7.45574 0.89243,10.08218c0.9588,1.44707 3.38191,-2.31548 4.60487,-0.88962c4.89328,4.92757 11.9627,10.3533 11.99411,18.13101c0.03282,7.99289 -5.65584,16.20013 -11.82207,19.61535c-8.63432,4.77251 -19.07416,2.33241 -28.58667,1.6504c-8.88918,-0.63714 -17.52491,-3.74483 -26.30848,-5.50708c-4.35643,-0.6795 -9.28112,0.70236 -13.13639,-1.82154c-2.34671,-1.53605 -3.68744,-5.64098 -3.03422,-8.85373c0.95239,-3.73376 6.86095,-3.56515 7.92469,-7.32861c1.08733,-3.8524 -3.74171,-8.42414 -2.42739,-12.53915c0.99523,-2.79336 4.88045,-2.57566 7.63909,-3.05011c4.72771,-0.80571 9.75521,1.45386 14.35012,0c5.53366,-1.77497 9.44963,-8.519 15.06403,-9.91271z" fill="url(#color-5)" stroke-width="1.28185"/><path d="M228.76412,44.93208c3.15236,-1.11276 6.63072,-1.22711 9.002,0.79428c2.00122,1.44878 0.69674,5.2414 1.60634,7.62497c0.70077,1.84036 1.70266,4.17393 3.27955,5.52022c1.4698,0.96901 3.34249,0.72198 5.18707,0.91339c2.94022,0.28199 6.31951,-1.83871 8.86816,-0.27802c4.20388,2.4607 10.22086,6.00232 9.87212,11.43752c-0.48722,7.58525 -8.17814,11.72819 -12.01385,17.87107c-0.81787,1.57823 2.24753,0.39873 0.931,0.51785c-5.262,0.47421 -9.72489,1.57982 -14.68504,1.34868c-6.10603,-0.44799 -11.96569,-1.32086 -18.33874,-3.37562c-4.59075,-1.53294 -8.08176,-6.46302 -12.81705,-7.62504c-4.79017,-1.17626 -10.29115,2.17553 -14.69109,0.27802c-2.03734,-0.88638 -3.92207,-4.87525 -2.74409,-7.02926c1.63641,-2.93564 7.14874,-0.42733 9.16934,-3.33595c1.28706,-1.93167 -1.41419,-4.6163 -1.20475,-7.02926c-0.27436,-2.83083 -1.19734,-7.1556 1.00398,-8.33986c4.07603,-2.19698 9.14526,1.36297 13.45286,0c5.18775,-1.66398 8.97126,-7.46295 14.12221,-9.29298z" fill="url(#color-6)" stroke-width="1.20171"/></g><g stroke="none" stroke-linecap="round"><path d="M307.44148,14.72576c7.29213,-1.81053 15.63302,-2.65951 22.84588,0.42361c2.53446,1.23108 -0.84672,7.45574 0.89243,10.08218c0.9588,1.44707 3.38191,-2.31548 4.60487,-0.88962c4.89328,4.92757 11.9627,10.3533 11.99411,18.13101c0.03282,7.99289 -5.65584,16.20013 -11.82207,19.61535c-8.63432,4.77251 -19.07416,2.33241 -28.58668,1.6504c-8.88918,-0.63714 -17.5249,-3.74483 -26.30848,-5.50708c-4.35643,-0.6795 -9.28112,0.70236 -13.13639,-1.82154c-2.34671,-1.53605 -3.68744,-5.64098 -3.03422,-8.85373c0.95239,-3.73376 6.86095,-3.56515 7.92469,-7.32861c1.08733,-3.8524 -3.74171,-8.42414 -2.42739,-12.53915c0.99523,-2.79336 4.88045,-2.57566 7.6391,-3.05011c4.72771,-0.8057 9.75521,1.45386 14.35012,0c5.53366,-1.77496 9.44962,-8.51899 15.06403,-9.91271z" fill="url(#color-7)" stroke-width="1.28185"/><path d="M308.76412,18.93208c3.15236,-1.11276 6.63072,-1.22711 9.002,0.79428c2.00122,1.44878 0.69674,5.2414 1.60635,7.62497c0.70077,1.84036 1.70266,4.17393 3.27954,5.52022c1.4698,0.96901 3.34249,0.72198 5.18707,0.9134c2.94022,0.282 6.31951,-1.8387 8.86816,-0.27802c4.20388,2.4607 10.22086,6.00232 9.87212,11.43752c-0.48722,7.58525 -8.17814,11.72819 -12.01385,17.87107c-0.81787,1.57823 2.24752,0.39873 0.931,0.51784c-5.262,0.47421 -9.72489,1.57982 -14.68504,1.34868c-6.10603,-0.44799 -11.96569,-1.32086 -18.33874,-3.37562c-4.59075,-1.53294 -8.08176,-6.46302 -12.81706,-7.62504c-4.79017,-1.17626 -10.29114,2.17553 -14.69109,0.27802c-2.03734,-0.88638 -3.92207,-4.87525 -2.74409,-7.02926c1.63641,-2.93564 7.14874,-0.42733 9.16934,-3.33596c1.28707,-1.93167 -1.41419,-4.6163 -1.20474,-7.02926c-0.27436,-2.83083 -1.19734,-7.1556 1.00398,-8.33986c4.07602,-2.19698 9.14526,1.36297 13.45286,0c5.18774,-1.66398 8.97126,-7.46295 14.12221,-9.29298z" fill="url(#color-8)" stroke-width="1.20171"/></g><g stroke="none" stroke-linecap="round"><path d="M130.44148,79.72576c7.29213,-1.81054 15.63302,-2.65951 22.84589,0.4236c2.53447,1.23108 -0.84672,7.45574 0.89243,10.08219c0.95881,1.44707 3.38191,-2.31548 4.60487,-0.88962c4.89328,4.92757 11.9627,10.3533 11.99412,18.13101c0.03282,7.99289 -5.65584,16.20013 -11.82207,19.61535c-8.63432,4.77251 -19.07416,2.33241 -28.58667,1.6504c-8.88918,-0.63714 -17.52491,-3.74483 -26.30848,-5.50708c-4.35643,-0.6795 -9.28112,0.70236 -13.13639,-1.82154c-2.34671,-1.53606 -3.68744,-5.64098 -3.03422,-8.85373c0.95239,-3.73376 6.86095,-3.56515 7.92469,-7.32861c1.08733,-3.8524 -3.74171,-8.42414 -2.42739,-12.53915c0.99523,-2.79336 4.88045,-2.57566 7.6391,-3.05011c4.72771,-0.8057 9.75521,1.45386 14.35011,0c5.53367,-1.77496 9.44963,-8.51899 15.06403,-9.91271z" fill="url(#color-9)" stroke-width="1.28185"/><path d="M131.76412,83.93208c3.15236,-1.11276 6.63072,-1.22711 9.002,0.79428c2.00122,1.44878 0.69674,5.2414 1.60634,7.62497c0.70077,1.84036 1.70266,4.17393 3.27955,5.52022c1.46981,0.96901 3.34249,0.72197 5.18707,0.91339c2.94022,0.282 6.31951,-1.8387 8.86816,-0.27802c4.20388,2.4607 10.22086,6.00232 9.87212,11.43752c-0.48723,7.58525 -8.17815,11.72819 -12.01386,17.87107c-0.81787,1.57823 2.24753,0.39873 0.931,0.51784c-5.262,0.47421 -9.7249,1.57982 -14.68504,1.34868c-6.10603,-0.44799 -11.96569,-1.32086 -18.33874,-3.37562c-4.59075,-1.53294 -8.08176,-6.46302 -12.81706,-7.62504c-4.79018,-1.17626 -10.29114,2.17553 -14.69109,0.27802c-2.03734,-0.88638 -3.92207,-4.87525 -2.74409,-7.02926c1.63641,-2.93564 7.14874,-0.42733 9.16934,-3.33595c1.28707,-1.93167 -1.41419,-4.6163 -1.20474,-7.02927c-0.27436,-2.83083 -1.19734,-7.1556 1.00397,-8.33986c4.07602,-2.19698 9.14526,1.36297 13.45285,0c5.18775,-1.66398 8.97126,-7.46295 14.12221,-9.29298z" fill="url(#color-10)" stroke-width="1.20171"/></g><g stroke="none" stroke-linecap="round"><path d="M284.44148,75.72576c7.29213,-1.81054 15.63302,-2.65951 22.84588,0.4236c2.53447,1.23108 -0.84672,7.45574 0.89243,10.08219c0.95881,1.44707 3.38192,-2.31548 4.60487,-0.88962c4.89328,4.92757 11.9627,10.3533 11.99411,18.13101c0.03282,7.99289 -5.65584,16.20013 -11.82207,19.61535c-8.63432,4.77251 -19.07416,2.33241 -28.58668,1.6504c-8.88918,-0.63714 -17.5249,-3.74483 -26.30847,-5.50708c-4.35643,-0.6795 -9.28112,0.70236 -13.13639,-1.82154c-2.34671,-1.53606 -3.68744,-5.64098 -3.03422,-8.85373c0.95239,-3.73376 6.86095,-3.56514 7.92469,-7.32861c1.08733,-3.8524 -3.74171,-8.42414 -2.42739,-12.53915c0.99523,-2.79336 4.88045,-2.57566 7.6391,-3.05011c4.72772,-0.8057 9.75521,1.45386 14.35011,0c5.53367,-1.77496 9.44963,-8.51899 15.06403,-9.91271z" fill="url(#color-11)" stroke-width="1.28185"/><path d="M285.76412,79.93208c3.15236,-1.11276 6.63072,-1.22711 9.002,0.79428c2.00122,1.44878 0.69674,5.2414 1.60635,7.62497c0.70077,1.84036 1.70266,4.17393 3.27954,5.52022c1.46981,0.96901 3.34249,0.72197 5.18707,0.91339c2.94022,0.282 6.31951,-1.8387 8.86816,-0.27802c4.20388,2.4607 10.22086,6.00232 9.87212,11.43752c-0.48723,7.58525 -8.17815,11.72819 -12.01386,17.87107c-0.81787,1.57823 2.24752,0.39873 0.931,0.51784c-5.262,0.47421 -9.7249,1.57982 -14.68504,1.34868c-6.10603,-0.44799 -11.96569,-1.32086 -18.33874,-3.37562c-4.59075,-1.53294 -8.08176,-6.46302 -12.81706,-7.62504c-4.79018,-1.17626 -10.29114,2.17553 -14.69109,0.27802c-2.03734,-0.88638 -3.92207,-4.87525 -2.74409,-7.02926c1.63641,-2.93564 7.14874,-0.42733 9.16934,-3.33595c1.28707,-1.93167 -1.4142,-4.6163 -1.20474,-7.02927c-0.27436,-2.83083 -1.19734,-7.1556 1.00397,-8.33986c4.07602,-2.19698 9.14526,1.36297 13.45286,0c5.18775,-1.66398 8.97126,-7.46295 14.12221,-9.29298z" fill="url(#color-12)" stroke-width="1.20171"/></g><g stroke="none" stroke-linecap="round"><path d="M386.44148,18.72576c7.29213,-1.81054 15.63302,-2.65951 22.84588,0.42361c2.53447,1.23108 -0.84672,7.45574 0.89243,10.08218c0.95881,1.44707 3.38192,-2.31548 4.60487,-0.88962c4.89328,4.92757 11.9627,10.3533 11.99411,18.13101c0.03282,7.99289 -5.65584,16.20013 -11.82207,19.61536c-8.63432,4.77251 -19.07416,2.33241 -28.58668,1.6504c-8.88918,-0.63714 -17.5249,-3.74483 -26.30847,-5.50708c-4.35643,-0.6795 -9.28112,0.70236 -13.13639,-1.82154c-2.34671,-1.53606 -3.68744,-5.64098 -3.03422,-8.85373c0.95239,-3.73376 6.86095,-3.56514 7.92469,-7.32861c1.08733,-3.8524 -3.74171,-8.42414 -2.42739,-12.53915c0.99523,-2.79336 4.88045,-2.57566 7.6391,-3.05011c4.72771,-0.8057 9.75521,1.45386 14.35011,0c5.53367,-1.77496 9.44963,-8.51899 15.06403,-9.91271z" fill="url(#color-13)" stroke-width="1.28185"/><path d="M387.76412,22.93208c3.15236,-1.11276 6.63072,-1.22711 9.002,0.79428c2.00122,1.44878 0.69674,5.2414 1.60635,7.62497c0.70077,1.84036 1.70266,4.17393 3.27954,5.52022c1.46981,0.96901 3.34249,0.72198 5.18707,0.9134c2.94022,0.282 6.31951,-1.8387 8.86816,-0.27802c4.20388,2.4607 10.22086,6.00232 9.87212,11.43752c-0.48722,7.58525 -8.17814,11.72819 -12.01385,17.87107c-0.81787,1.57823 2.24752,0.39873 0.931,0.51784c-5.262,0.47421 -9.7249,1.57982 -14.68504,1.34868c-6.10603,-0.44799 -11.96569,-1.32086 -18.33874,-3.37562c-4.59075,-1.53294 -8.08176,-6.46302 -12.81706,-7.62504c-4.79018,-1.17626 -10.29114,2.17553 -14.69109,0.27802c-2.03734,-0.88638 -3.92207,-4.87525 -2.7441,-7.02926c1.63641,-2.93564 7.14874,-0.42733 9.16934,-3.33595c1.28707,-1.93167 -1.4142,-4.6163 -1.20474,-7.02927c-0.27436,-2.83083 -1.19734,-7.1556 1.00397,-8.33986c4.07602,-2.19698 9.14526,1.36297 13.45286,0c5.18775,-1.66398 8.97126,-7.46295 14.12221,-9.29298z" fill="url(#color-14)" stroke-width="1.20171"/></g><path d="M60,40.5c0,-1.38071 1.11929,-2.5 2.5,-2.5c1.38071,0 2.5,1.11929 2.5,2.5c0,1.38071 -1.11929,2.5 -2.5,2.5c-1.38071,0 -2.5,-1.11929 -2.5,-2.5z" fill="#000000" stroke="none" stroke-width="0.5" stroke-linecap="butt"/><path d="M85,44.5c0,-1.38071 1.11929,-2.5 2.5,-2.5c1.38071,0 2.5,1.11929 2.5,2.5c0,1.38071 -1.11929,2.5 -2.5,2.5c-1.38071,0 -2.5,-1.11929 -2.5,-2.5z" fill="#000000" stroke="none" stroke-width="0.5" stroke-linecap="butt"/><path d="M49.26393,48.38197c1.11803,-2.23607 3.3541,-1.11803 3.3541,-1.11803l2.64973,1.4683c2.51259,2.53638 4.6315,2.89792 7.54656,4.64114c0.80916,0.48388 1.19935,1.50216 2,2c2.03454,1.26506 4.76935,0.89023 6.91742,1.95113c0.75943,0.37507 0.95102,1.52168 1.72496,1.8658c0.62504,0.27792 1.35973,-0.16451 2.04329,-0.1903c2.28091,-0.08607 5.60658,0.71692 7.68567,-0.62663c0.70019,-0.45247 1.07314,-1.29255 1.72936,-1.80673c0.79844,-0.62562 1.94896,-0.80478 2.59821,-1.58413c0.50241,-0.60309 0.41004,-1.51539 0.61506,-2.27309c0,0 0.79057,-2.37171 3.16228,-1.58114c2.37171,0.79057 1.58114,3.16228 1.58114,3.16228c-0.46165,1.2423 -0.57033,2.68152 -1.38494,3.72691c-0.85486,1.09704 -2.32241,1.53882 -3.40179,2.41587c-0.81669,0.66361 -1.357,1.67114 -2.27064,2.19327c-3.19408,1.82537 -6.81355,1.46914 -10.31433,1.37337c-1.31993,-0.03611 -2.71955,0.27117 -3.95671,-0.1903c-0.97423,-0.3634 -1.3475,-1.66425 -2.27504,-2.1342c-2.19232,-1.11077 -4.95938,-0.81108 -7.08258,-2.04887c-0.8145,-0.47484 -1.19232,-1.51364 -2,-2c-0.83385,-0.50212 -1.91668,-0.43914 -2.78405,-0.88084c-2.95643,-1.50554 -3.51396,-2.33959 -5.66939,-4.47802l-1.35027,-0.5317c0,0 -2.23607,-1.11803 -1.11803,-3.3541z" fill="#000000" stroke="none" stroke-width="0.5" stroke-linecap="butt"/><path d="M128,99.5c0,-1.38071 1.11929,-2.5 2.5,-2.5c1.38071,0 2.5,1.11929 2.5,2.5c0,1.38071 -1.11929,2.5 -2.5,2.5c-1.38071,0 -2.5,-1.11929 -2.5,-2.5z" fill="#000000" stroke="none" stroke-width="0.5" stroke-linecap="butt"/><path d="M139,99.5c0,-1.38071 1.11929,-2.5 2.5,-2.5c1.38071,0 2.5,1.11929 2.5,2.5c0,1.38071 -1.11929,2.5 -2.5,2.5c-1.38071,0 -2.5,-1.11929 -2.5,-2.5z" fill="#000000" stroke="none" stroke-width="0.5" stroke-linecap="butt"/><path d="M151,99.5c0,-1.38071 1.11929,-2.5 2.5,-2.5c1.38071,0 2.5,1.11929 2.5,2.5c0,1.38071 -1.11929,2.5 -2.5,2.5c-1.38071,0 -2.5,-1.11929 -2.5,-2.5z" fill="#000000" stroke="none" stroke-width="0.5" stroke-linecap="butt"/><path d="M116.5,109c1.48165,0 2.08518,0.87811 2.33103,1.5935c0.68923,0.19948 1.36912,0.41906 1.9833,0.77988c0.81291,0.47757 1.19707,1.50584 2,2c1.7954,1.10498 4.18644,0.92509 6,2c0.70231,0.41626 0.89548,1.48729 1.64238,1.81693c1.53907,0.67925 3.36103,-0.2 5.04329,-0.1903c1.89415,0.01092 3.72762,-0.67819 5.59954,-0.96772c0.80669,-0.12477 1.68485,0.45867 2.44375,0.15802c0.70585,-0.27964 0.86615,-1.29291 1.49493,-1.71841c1.2346,-0.83545 2.74634,-1.19342 4,-2c2.30925,-1.48572 3.30048,-4.33052 4.09007,-6.76246c0,0 0.79057,-2.37171 3.16228,-1.58114c2.37171,0.79057 1.58114,3.16228 1.58114,3.16228c-1.18916,3.4936 -2.71164,7.04171 -5.90993,9.23754c-1.22895,0.84375 -2.7548,1.18042 -4,2c-0.94344,0.62096 -1.4573,1.85988 -2.50507,2.28159c-1.10077,0.44305 -2.38775,-0.04837 -3.55625,0.15802c-2.12811,0.37589 -4.23943,1.02138 -6.40046,1.03228c-1.03379,0.00521 -6.34092,0.04116 -6.95671,-0.1903c-1.00256,-0.37683 -1.44237,-1.62679 -2.35762,-2.18307c-1.80153,-1.09496 -4.18228,-0.93213 -6,-2c-1.51063,-0.88746 -2.80037,-2.244 -4.47624,-2.75492l-1.70943,-3.37171c0,0 0,-2.5 2.5,-2.5z" fill="#000000" stroke="none" stroke-width="0.5" stroke-linecap="butt"/><path d="M289,114.5l0.41987,0.38675c-1.858,-2.78701 -3.78375,-5.52456 -5.07653,-8.57038c-0.6752,0.66447 -1.41073,1.27988 -2.07558,1.9514c-1.09975,1.11079 -2.17615,2.24711 -3.32952,3.30211c-0.28051,0.25659 -0.89969,0.24368 -0.95763,0.6194c-0.04338,0.28127 0.55992,0.10643 0.83371,0.18411c0.83016,0.23551 1.65449,0.49158 2.47624,0.75492c1.00381,0.32168 2,0.66667 3,1c0.94225,0.31408 3.3685,1.54568 5.26575,2.0132c-0.55632,-0.72345 -0.55632,-1.64149 -0.55632,-1.64149zM285.5,93c0.55851,0 0.99225,0.12477 1.32908,0.31857l2.98524,1.0548c1.6738,1.61676 3.52944,3.04976 5.45344,4.35886c2.86026,4.25848 7.90578,6.06823 7.68118,12.27043c-0.02684,0.74107 -3.86292,4.44685 -4.68118,5.2651c-0.67587,0.67587 -4.27191,4.33886 -4.81106,4.54193c-4.09409,1.54206 -9.92303,-1.62192 -13.74728,-2.93799c-2.48715,-0.85593 -6.17124,-1.53328 -6.69004,-5.06098c-0.22985,-1.56286 1.05923,-3.01978 1.9713,-4.30954c1.72813,-2.44374 4.73276,-3.81832 6.38269,-6.31552c0.67181,-1.0168 1.14211,-2.15011 1.62736,-3.27481c-0.00231,-1.10491 -0.0017,-2.24485 -0.00115,-2.89617c-0.06448,-0.36876 -0.03927,-0.80132 0.12872,-1.30527c0.01261,-0.03782 0.02561,-0.07483 0.03901,-0.11106c0.13678,-0.40024 0.38538,-0.85226 0.83723,-1.17323c0.44738,-0.32717 0.95482,-0.42007 1.37777,-0.42326c0.0386,-0.00125 0.07783,-0.00189 0.11769,-0.00189zM287.96772,101.09954c0.70457,4.21061 3.3177,7.57165 5.61241,11.01371l0.29264,1.66347c0.26866,-0.37052 0.54593,-0.73095 0.85947,-1.04449c0.66667,-0.66667 1.27241,-1.40042 2,-2c0.38838,-0.32004 1.32985,-0.23177 1.31882,-0.7349c-0.0585,-2.66846 -2.95865,-3.31814 -4.36725,-4.77936c-0.81832,-0.84889 -1.30105,-1.96681 -1.95157,-2.95021c-1.24814,-0.81272 -2.46674,-1.69579 -3.57269,-2.69618c-0.10444,0.1865 -0.20353,0.37612 -0.29862,0.56807c0.0196,0.32123 0.05349,0.64132 0.1068,0.95989z" fill="#000000" stroke="none" stroke-width="0.5" stroke-linecap="butt"/><path d="M216,67.5c0,1.38071 -1.11929,2.5 -2.5,2.5c-0.71364,0 -1.35745,-0.29902 -1.81296,-0.7786c-0.07463,1.40066 0.55517,2.87865 0.31296,4.2786c-0.08145,0.4708 -0.82006,0.76258 -0.73223,1.23223c0.06661,0.35619 0.50333,-0.54688 0.83178,-0.69995c0.8345,-0.38891 1.72346,-0.65524 2.60989,-0.90399c0.66152,-0.18564 1.56169,0.11329 2.0228,-0.39606c0.58747,-0.64893 0.20145,-1.78966 0.64114,-2.54656c0.47358,-0.81524 1.48578,-1.20977 2,-2c0.93817,-1.44176 0.64626,-3.10465 0.62663,-4.68567c0,0 0,-2.5 2.5,-2.5c2.5,0 2.5,2.5 2.5,2.5c-0.0298,3.13923 0.31621,4.3237 -1.37337,7.31433c-0.46375,0.82087 -1.50557,1.19724 -2,2c-0.64874,1.0533 -0.461,2.60247 -1.35886,3.45344c-1.96709,1.86436 -10.2541,4.11412 -12.53553,2c-1.17937,-1.09288 -0.58133,-3.16697 -0.73223,-4.76777c-0.07561,-0.80209 0.0518,-6.64686 0.1903,-6.95671c1.65133,-3.69418 5.12564,-3.247 7.54193,-5.81106l0.5317,-1.35027c0,0 1.11803,-2.23607 3.3541,-1.11803c2.23607,1.11803 1.11803,3.3541 1.11803,3.3541l-1.4683,2.64973c-0.81119,0.77992 -1.47662,1.74808 -2.43003,2.34433c0.10485,0.27591 0.16226,0.5752 0.16226,0.8879z" fill="#000000" stroke="none" stroke-width="0.5" stroke-linecap="butt"/><path d="M235.5,63c1.78279,0 2.29424,1.27133 2.44097,2.00078c2.45211,-0.01116 5.36638,-0.22897 7.3268,1.73145c4.69882,4.69882 1.49031,20.59555 -7.53553,13.53553c-1.03863,-0.81242 -0.8683,-2.5002 -1.47802,-3.66939c-0.55573,-1.06565 -1.47901,-1.91694 -2,-3c-1.5631,-3.24947 -1.22225,-3.73115 -1.25421,-7.09838v-1c0,0 0,-2.5 2.5,-2.5zM238.4671,69.96306c0.47776,1.3312 1.28824,2.3451 2.27868,4.43856c0.41551,0.87824 0.22801,2.86019 1.17983,2.66526c0.40793,-0.08355 0.34127,-6.26446 -0.19338,-6.79911c-0.32385,-0.32385 -2.11922,-0.33331 -3.26513,-0.30471z" fill="#000000" stroke="none" stroke-width="0.5" stroke-linecap="butt"/><path d="M325.73223,43.26777l-2.35886,-2.45344c-0.66468,-1.90999 -1.48459,-4.71062 -3.11592,-6.35881c-0.77589,0.87419 -1.57656,1.64862 -2.44313,2.17111c-2.73594,1.64963 -6.37994,1.68722 -9.21595,3.11916c-3.99182,2.01553 -7.11368,4.64397 -11.30781,6.12592l-2.15719,-1.74309c0.274,0.55839 0.55152,1.11011 1.02113,1.49719c1.08835,0.89708 2.63128,1.06743 3.80727,1.84609c0.73783,0.48854 1.09833,1.43865 1.85255,1.90148c2.48804,1.52681 5.92996,1.64011 8.68567,1.62663c2.2168,-0.01084 5.66953,0.68531 7.68567,-0.62663c0.79023,-0.51422 1.19155,-1.51493 2,-2c0.90388,-0.54233 2.09352,-0.46203 3,-1c0.71692,-0.42547 1.07865,-1.2856 1.72936,-1.80673c0.64287,-0.51485 1.35094,-1.04218 2.05016,-1.59693c-0.73347,-0.20246 -1.23295,-0.70194 -1.23295,-0.70194zM313.91503,30.43336c-3.62836,-2.89451 -6.75279,-4.46576 -11.41503,-4.43336c0,0 -2.5,0 -2.5,-2.5c0,-2.5 2.5,-2.5 2.5,-2.5c3.34341,0.01895 4.55895,-0.2393 8.01138,1.21371c3.23741,1.36252 5.45426,4.46905 8.30294,6.15966c0.07088,0.04207 0.14357,0.08023 0.21778,0.11512c1.65333,-2.1393 3.28173,-4.39814 5.51118,-5.29819c1.22441,-0.49431 2.63781,-0.12687 3.95671,-0.1903c0,0 2.5,0 2.5,2.5c0,2.5 -2.5,2.5 -2.5,2.5c-1.98188,-0.18458 -3.57563,1.03991 -5.05565,2.6573c2.08949,2.01766 3.33122,4.83847 4.18228,7.52838l1.64114,1.54656c0,0 0.51336,0.51336 0.71015,1.26344c0.71911,-1.03057 1.14474,-2.17869 1.02208,-3.49568c0,0 0,-2.5 2.5,-2.5c2.5,0 2.5,2.5 2.5,2.5c-0.06343,1.3189 0.28923,2.72643 -0.1903,3.95671c-0.42893,1.10045 -1.64901,1.69769 -2.37634,2.62826c-2.16171,2.76574 -4.53782,5.67487 -7.61903,7.54165c-0.90154,0.54621 -2.09612,0.45767 -3,1c-0.80845,0.48507 -1.17913,1.53625 -2,2c-3.2774,1.8516 -6.75007,1.38892 -10.31433,1.37337c-3.79368,-0.01655 -7.91223,-0.36758 -11.31433,-2.37337c-0.86216,-0.50831 -1.31624,-1.54102 -2.14745,-2.09852c-1.30488,-0.8752 -2.99029,-1.14256 -4.19273,-2.15391c-1.02078,-0.85856 -1.43994,-2.25223 -2.27885,-3.28922c-1.39407,-1.72325 -2.91144,-3.35785 -4.14677,-5.19822l-1.15594,-2.26872c0,0 -1.11803,-2.23607 1.11803,-3.3541c2.23607,-1.11803 3.3541,1.11803 3.3541,1.11803l0.84406,1.73128c0.71804,1.08557 1.56351,2.07783 2.41047,3.06932c0.04634,-0.65914 0.36667,-1.40628 1.39137,-1.91863c1.8054,-0.9027 2.88196,0.38112 3.22968,0.90913c0.86653,-0.57913 1.68402,-1.26746 2.57402,-1.79969c0.62432,-0.37335 1.35264,-0.51874 2.06227,-0.70902c-0.74612,-0.43255 -1.24794,-1.23985 -1.24794,-2.16435c0,-1.38071 1.11929,-2.5 2.5,-2.5c1.37268,0 2.48696,1.1063 2.49989,2.47592c0.13083,-0.07922 0.26443,-0.15366 0.40173,-0.22171c2.65808,-1.31725 6.25664,-1.37546 8.78405,-2.88084c0.1253,-0.07463 0.24876,-0.15385 0.37053,-0.23729c-0.56747,-0.53811 -1.02804,-1.2136 -1.64117,-1.70273zM296.27834,40.91878l-0.56891,0.20951c0.19444,-0.05928 0.38377,-0.12978 0.56891,-0.20951z" fill="#000000" stroke="none" stroke-width="0.5" stroke-linecap="butt"/><text transform="translate(144.5,31.5) scale(0.5,0.5)" font-size="40" xml:space="preserve" fill="#000000" fill-rule="nonzero" stroke="none" stroke-width="1" stroke-linecap="butt" stroke-linejoin="miter" stroke-miterlimit="10" stroke-dasharray="" stroke-dashoffset="0" font-family="Sans Serif" font-weight="normal" text-anchor="start" style="mix-blend-mode: normal"><tspan x="0" dy="0">구름</tspan></text><text transform="translate(364.5,47.5) scale(0.5,0.5)" font-size="40" xml:space="preserve" fill="#000000" fill-rule="nonzero" stroke="none" stroke-width="1" stroke-linecap="butt" stroke-linejoin="miter" stroke-miterlimit="10" stroke-dasharray="" stroke-dashoffset="0" font-family="Sans Serif" font-weight="normal" text-anchor="start" style="mix-blend-mode: normal"><tspan x="0" dy="0">구름</tspan></text></g></g></svg>